<?xml version="1.0" standalone="no"?>
<!DOCTYPE svg PUBLIC "-//W3C//DTD SVG 20010904//EN"
 "http://www.w3.org/TR/2001/REC-SVG-20010904/DTD/svg10.dtd">
<svg version="1.0" xmlns="http://www.w3.org/2000/svg"
 width="1024.000000pt" height="1024.000000pt" viewBox="0 0 1024.000000 1024.000000"
 preserveAspectRatio="xMidYMid meet">

<g transform="translate(0.000000,1024.000000) scale(0.100000,-0.100000)"
fill="#000000" stroke="none">
<path d="M3650 10149 c-904 -20 -1273 -65 -1687 -205 -356 -120 -624 -269
-878 -486 -499 -429 -793 -970 -914 -1683 -69 -406 -90 -1041 -90 -2655 0
-2135 32 -2608 214 -3156 116 -348 270 -626 489 -880 370 -432 816 -704 1400
-854 474 -122 1019 -149 2931 -149 1816 -1 2392 25 2837 124 1160 260 1925
1079 2119 2271 32 200 48 379 66 754 26 526 26 3254 0 3780 -30 625 -73 909
-192 1266 -136 408 -317 709 -603 1006 -255 265 -543 459 -874 592 -627 252
-1058 287 -3423 284 -588 -1 -1216 -5 -1395 -9z m3000 -909 c708 -21 939 -44
1232 -124 319 -88 564 -225 775 -433 226 -222 367 -470 459 -803 118 -430 139
-901 131 -3035 -6 -1772 -19 -2033 -118 -2435 -163 -660 -598 -1107 -1249
-1286 -413 -113 -832 -134 -2760 -134 -1970 0 -2369 21 -2799 145 -528 152
-923 502 -1119 992 -186 467 -212 825 -212 2993 0 1915 20 2328 130 2749 142
539 481 943 970 1153 340 147 653 194 1445 217 387 12 2729 12 3115 1z"/>
<path d="M7662 8396 c-205 -50 -381 -226 -437 -436 -19 -72 -19 -230 0 -304
53 -203 228 -376 435 -431 73 -20 226 -19 304 1 162 42 309 162 383 314 49
100 63 162 63 273 0 276 -186 513 -455 582 -71 18 -219 18 -293 1z"/>
<path d="M4915 7700 c-645 -58 -1206 -323 -1650 -781 -396 -407 -634 -899
-711 -1469 -37 -266 -20 -620 42 -900 214 -962 991 -1739 1954 -1954 277 -61
634 -78 900 -42 567 77 1058 313 1464 706 431 417 691 933 772 1530 23 169 23
491 0 660 -81 596 -342 1115 -772 1530 -477 461 -1067 707 -1738 724 -89 3
-206 1 -261 -4z m383 -911 c622 -68 1141 -461 1380 -1045 82 -201 117 -386
117 -624 0 -240 -34 -416 -119 -626 -178 -441 -530 -784 -970 -949 -363 -135
-790 -137 -1156 -4 -580 211 -982 700 -1091 1329 -17 98 -17 402 0 500 71 412
258 752 554 1010 356 311 824 460 1285 409z"/>
</g>
</svg>
